<?xml version="1.0" encoding="utf-8"?>
<!-- Generator: Adobe Illustrator 22.0.0, SVG Export Plug-In . SVG Version: 6.00 Build 0)  -->
<svg version="1.1" id="Layer_1" xmlns="http://www.w3.org/2000/svg" xmlns:xlink="http://www.w3.org/1999/xlink" x="0px" y="0px"
	 viewBox="0 0 532 532" style="enable-background:new 0 0 532 532;" xml:space="preserve">
<style type="text/css">
	.stw{stroke:#000000;stroke-width:20;stroke-miterlimit:10;}
</style>
<g>
	<g>
		<path class="stw" d="M518.9,503.8L363.1,348c32.4-35.9,52.2-83.3,52.2-135.3C415.3,100.9,324.4,10,212.7,10S10,100.9,10,212.7
			s90.9,202.7,202.7,202.7c52,0,99.4-19.9,135.3-52.2l155.8,155.8c2.1,2.1,4.8,3.1,7.5,3.1s5.5-1,7.5-3.1
			C523,514.7,523,508,518.9,503.8z M212.7,394c-100,0-181.3-81.3-181.3-181.3S112.7,31.3,212.7,31.3S394,112.7,394,212.7
			S312.6,394,212.7,394z"/>
	</g>
</g>
</svg>
